<?xml version="1.0" encoding="utf-8"?>
<!-- Generator: Adobe Illustrator 24.1.0, SVG Export Plug-In . SVG Version: 6.00 Build 0)  -->
<svg version="1.1" id="Layer_1" xmlns="http://www.w3.org/2000/svg" xmlns:xlink="http://www.w3.org/1999/xlink" x="0px" y="0px"
	 viewBox="0 0 24 24" style="enable-background:new 0 0 24 24;" xml:space="preserve">
<style type="text/css">
	.st0{fill:#707070;}
</style>
<path class="st0" d="M12,0C5.4,0.1,0.1,5.4,0,12c0,3.7,1.8,7.3,4.8,9.5v0.1h0.1c4.2,3.2,10,3.2,14.2,0h0.1v-0.1
	c3-2.2,4.8-5.8,4.8-9.5C23.9,5.4,18.6,0.1,12,0z M7.3,20.3c0.4-1.7,1.8-2.8,3.5-2.8h2.4c1.7,0,3.2,1.2,3.5,2.8
	C13.8,22,10.2,22,7.3,20.3z M18.7,18.8c-0.9-2.2-3.1-3.7-5.5-3.7h-2.4c-2.4,0-4.6,1.5-5.5,3.7C3.5,17,2.4,14.5,2.4,12
	C2.5,6.7,6.7,2.5,12,2.4c5.3,0.1,9.5,4.3,9.6,9.6C21.6,14.5,20.5,17,18.7,18.8z"/>
<path class="st0" d="M12,6C9.8,5.9,8.1,7.7,8,9.8C8,9.9,8,9.9,8,10c-0.1,2.2,1.7,3.9,3.8,4c0.1,0,0.1,0,0.2,0c2.2,0.1,3.9-1.7,4-3.8
	c0-0.1,0-0.1,0-0.2c0.1-2.2-1.7-3.9-3.8-4C12.1,6,12.1,6,12,6z M12,12c-1.1,0.1-1.9-0.8-2-1.8c0-0.1,0-0.1,0-0.2
	c-0.1-1.1,0.8-1.9,1.8-2c0.1,0,0.1,0,0.2,0c1.1-0.1,1.9,0.8,2,1.8c0,0.1,0,0.1,0,0.2c0.1,1.1-0.8,1.9-1.8,2C12.1,12,12.1,12,12,12z"
	/>
</svg>
