<?xml version="1.0" encoding="UTF-8"?><svg id="a" xmlns="http://www.w3.org/2000/svg" viewBox="0 0 1500 325.62"><defs><style>.b{isolation:isolate;}.c{fill:#231f20;}</style></defs><g class="b"><path class="c" d="M139.15,109.21c6.56,8.43,9.84,18.05,9.84,28.87,0,15.61-5.45,27.98-16.36,37.11-10.91,9.14-26.12,13.7-45.63,13.7H0V2.13H84.07c18.98,0,33.83,4.35,44.56,13.04,10.73,8.69,16.1,20.49,16.1,35.39,0,11-2.89,20.13-8.65,27.4-5.77,7.28-13.44,12.33-23.01,15.17,10.82,2.31,19.51,7.67,26.07,16.1Zm-93.65-31.53h29.8c7.45,0,13.17-1.64,17.16-4.92,3.99-3.28,5.99-8.11,5.99-14.5s-2-11.26-5.99-14.63c-3.99-3.37-9.71-5.05-17.16-5.05h-29.8v39.11Zm51.22,69.31c4.17-3.46,6.25-8.47,6.25-15.03s-2.17-11.71-6.52-15.43c-4.35-3.73-10.33-5.59-17.96-5.59H45.49v41.24h33.52c7.62,0,13.52-1.73,17.69-5.19Z"/><path class="c" d="M291.59,155.91h-69.71l-11.17,32.99h-47.62L230.67,2.13h52.68l67.58,186.77h-48.16l-11.17-32.99Zm-11.71-35.12l-23.15-68.38-22.88,68.38h46.03Z"/><path class="c" d="M466.66,188.9l-38.84-70.5h-10.91v70.5h-45.49V2.13h76.36c14.72,0,27.27,2.57,37.65,7.72,10.38,5.15,18.13,12.2,23.28,21.15,5.14,8.96,7.72,18.94,7.72,29.93,0,12.42-3.5,23.5-10.51,33.26-7.01,9.76-17.34,16.67-30.99,20.75l43.1,73.96h-51.35Zm-49.75-102.7h28.2c8.33,0,14.59-2.04,18.76-6.12,4.16-4.08,6.25-9.84,6.25-17.29s-2.09-12.68-6.25-16.76c-4.17-4.08-10.42-6.12-18.76-6.12h-28.2v46.29Z"/><path class="c" d="M661.14,155.91h-69.71l-11.17,32.99h-47.62L600.21,2.13h52.68l67.58,186.77h-48.16l-11.17-32.99Zm-11.71-35.12l-23.15-68.38-22.88,68.38h46.03Z"/><path class="c" d="M908.03,188.9h-45.5l-76.09-115.2v115.2h-45.49V2.13h45.49l76.09,115.73V2.13h45.5V188.9Z"/><path class="c" d="M1065.01,61.19c-3.37-6.21-8.21-10.95-14.5-14.23-6.3-3.28-13.7-4.92-22.22-4.92-14.72,0-26.52,4.83-35.39,14.5-8.87,9.67-13.3,22.57-13.3,38.71,0,17.21,4.66,30.64,13.97,40.31,9.31,9.67,22.12,14.5,38.44,14.5,11.17,0,20.62-2.84,28.34-8.51,7.72-5.67,13.34-13.83,16.89-24.48h-57.73v-33.52h98.97v42.3c-3.37,11.35-9.09,21.91-17.16,31.66-8.07,9.76-18.32,17.65-30.73,23.68-12.42,6.03-26.43,9.05-42.04,9.05-18.45,0-34.9-4.03-49.35-12.11-14.46-8.07-25.72-19.29-33.79-33.66-8.07-14.37-12.11-30.77-12.11-49.22s4.03-34.89,12.11-49.35c8.07-14.45,19.29-25.72,33.66-33.79,14.37-8.07,30.77-12.11,49.22-12.11,22.35,0,41.19,5.41,56.54,16.23,15.34,10.82,25.49,25.81,30.46,44.96h-50.28Z"/><path class="c" d="M1260.02,155.91h-69.71l-11.17,32.99h-47.62L1199.09,2.13h52.68l67.58,186.77h-48.16l-11.17-32.99Zm-11.71-35.12l-23.15-68.38-22.88,68.38h46.03Z"/><path class="c" d="M1500,2.13l-64.65,125.05v61.72h-45.5v-61.72L1325.2,2.13h51.61l36.18,78.22L1448.92,2.13h51.08Z"/></g><g><path class="c" d="M23,230.25v94.43H0v-94.43H23Z"/><path class="c" d="M124.16,324.68h-23l-38.47-58.25v58.25h-23v-94.43h23l38.47,58.52v-58.52h23v94.43Z"/><path class="c" d="M202.31,230.25v18.43h-38.47v19.91h28.79v17.89h-28.79v38.2h-23v-94.43h61.47Z"/><path class="c" d="M234.67,319.44c-7.4-4.12-13.27-9.89-17.62-17.29-4.35-7.4-6.52-15.72-6.52-24.95s2.17-17.53,6.52-24.89c4.35-7.35,10.22-13.09,17.62-17.22,7.4-4.12,15.54-6.19,24.42-6.19s17.02,2.06,24.42,6.19c7.4,4.13,13.23,9.87,17.49,17.22,4.26,7.35,6.39,15.65,6.39,24.89s-2.15,17.55-6.46,24.95c-4.3,7.4-10.14,13.16-17.49,17.29-7.35,4.13-15.47,6.19-24.35,6.19s-17.02-2.06-24.42-6.19Zm42.51-22.33c4.53-5.02,6.79-11.66,6.79-19.91s-2.27-15-6.79-19.98c-4.53-4.98-10.56-7.47-18.09-7.47s-13.7,2.47-18.23,7.4c-4.53,4.93-6.79,11.61-6.79,20.04s2.26,15,6.79,19.98c4.53,4.98,10.6,7.47,18.23,7.47s13.56-2.51,18.09-7.53Z"/><path class="c" d="M368.31,324.68l-19.64-35.65h-5.52v35.65h-23v-94.43h38.61c7.44,0,13.79,1.3,19.03,3.9,5.25,2.6,9.17,6.17,11.77,10.69,2.6,4.53,3.9,9.57,3.9,15.13,0,6.28-1.77,11.88-5.31,16.81-3.54,4.93-8.77,8.43-15.67,10.49l21.79,37.4h-25.96Zm-25.15-51.92h14.26c4.21,0,7.38-1.03,9.48-3.09,2.11-2.06,3.16-4.98,3.16-8.74s-1.06-6.41-3.16-8.47c-2.11-2.06-5.27-3.09-9.48-3.09h-14.26v23.41Z"/><path class="c" d="M514.8,230.25v94.43h-23v-56.63l-21.12,56.63h-18.56l-21.25-56.77v56.77h-23v-94.43h27.17l26.5,65.38,26.23-65.38h27.04Z"/><path class="c" d="M590.13,308h-35.24l-5.65,16.68h-24.08l34.17-94.43h26.63l34.17,94.43h-24.35l-5.65-16.68Zm-5.92-17.76l-11.7-34.57-11.57,34.57h23.27Z"/><path class="c" d="M698.42,230.25v18.43h-25.02v76h-23v-76h-25.02v-18.43h73.04Z"/><path class="c" d="M732.99,230.25v94.43h-23v-94.43h23Z"/><path class="c" d="M769.91,319.44c-7.4-4.12-13.27-9.89-17.62-17.29-4.35-7.4-6.52-15.72-6.52-24.95s2.17-17.53,6.52-24.89c4.35-7.35,10.22-13.09,17.62-17.22,7.4-4.12,15.54-6.19,24.42-6.19s17.02,2.06,24.42,6.19c7.4,4.13,13.23,9.87,17.49,17.22,4.26,7.35,6.39,15.65,6.39,24.89s-2.15,17.55-6.46,24.95c-4.3,7.4-10.14,13.16-17.49,17.29-7.35,4.13-15.47,6.19-24.35,6.19s-17.02-2.06-24.42-6.19Zm42.51-22.33c4.53-5.02,6.79-11.66,6.79-19.91s-2.27-15-6.79-19.98c-4.53-4.98-10.56-7.47-18.09-7.47s-13.7,2.47-18.23,7.4c-4.53,4.93-6.79,11.61-6.79,20.04s2.26,15,6.79,19.98c4.53,4.98,10.6,7.47,18.23,7.47s13.56-2.51,18.09-7.53Z"/><path class="c" d="M939.87,324.68h-23l-38.47-58.25v58.25h-23v-94.43h23l38.47,58.52v-58.52h23v94.43Z"/><path class="c" d="M1000.68,322.26c-5.47-2.24-9.84-5.56-13.12-9.95-3.27-4.39-5-9.69-5.18-15.87h24.48c.36,3.5,1.57,6.17,3.63,8,2.06,1.84,4.75,2.76,8.07,2.76s6.1-.78,8.07-2.35c1.97-1.57,2.96-3.74,2.96-6.52,0-2.33-.79-4.26-2.35-5.78-1.57-1.52-3.5-2.78-5.78-3.77-2.29-.99-5.54-2.11-9.75-3.36-6.1-1.88-11.08-3.77-14.93-5.65-3.86-1.88-7.18-4.66-9.95-8.34-2.78-3.68-4.17-8.47-4.17-14.39,0-8.79,3.18-15.67,9.55-20.65,6.37-4.98,14.66-7.47,24.89-7.47s18.79,2.49,25.15,7.47c6.37,4.98,9.77,11.9,10.22,20.78h-24.89c-.18-3.05-1.3-5.45-3.36-7.2-2.06-1.75-4.71-2.62-7.94-2.62-2.78,0-5.02,.74-6.73,2.22-1.7,1.48-2.56,3.61-2.56,6.39,0,3.05,1.43,5.43,4.3,7.13,2.87,1.7,7.35,3.54,13.45,5.51,6.1,2.06,11.05,4.04,14.86,5.92,3.81,1.88,7.11,4.62,9.89,8.21,2.78,3.59,4.17,8.21,4.17,13.86s-1.37,10.27-4.1,14.66c-2.74,4.39-6.7,7.89-11.9,10.49-5.2,2.6-11.35,3.9-18.43,3.9s-13.09-1.12-18.56-3.36Z"/><path class="c" d="M1148.78,230.25l-32.69,63.22v31.21h-23v-31.21l-32.69-63.22h26.1l18.29,39.55,18.16-39.55h25.83Z"/><path class="c" d="M1173.66,322.26c-5.47-2.24-9.84-5.56-13.12-9.95-3.28-4.39-5-9.69-5.18-15.87h24.48c.36,3.5,1.57,6.17,3.63,8,2.06,1.84,4.75,2.76,8.07,2.76s6.1-.78,8.07-2.35c1.97-1.57,2.96-3.74,2.96-6.52,0-2.33-.79-4.26-2.35-5.78-1.57-1.52-3.5-2.78-5.78-3.77-2.29-.99-5.54-2.11-9.75-3.36-6.1-1.88-11.08-3.77-14.93-5.65-3.86-1.88-7.18-4.66-9.95-8.34-2.78-3.68-4.17-8.47-4.17-14.39,0-8.79,3.18-15.67,9.55-20.65,6.37-4.98,14.66-7.47,24.88-7.47s18.79,2.49,25.16,7.47c6.37,4.98,9.77,11.9,10.22,20.78h-24.89c-.18-3.05-1.3-5.45-3.36-7.2-2.06-1.75-4.71-2.62-7.94-2.62-2.78,0-5.02,.74-6.73,2.22-1.7,1.48-2.56,3.61-2.56,6.39,0,3.05,1.43,5.43,4.3,7.13,2.87,1.7,7.35,3.54,13.45,5.51,6.1,2.06,11.05,4.04,14.86,5.92,3.81,1.88,7.11,4.62,9.89,8.21,2.78,3.59,4.17,8.21,4.17,13.86s-1.37,10.27-4.1,14.66c-2.74,4.39-6.7,7.89-11.91,10.49-5.2,2.6-11.35,3.9-18.43,3.9s-13.1-1.12-18.56-3.36Z"/><path class="c" d="M1308.72,230.25v18.43h-25.02v76h-23v-76h-25.02v-18.43h73.04Z"/><path class="c" d="M1343.29,248.68v19.1h30.81v17.76h-30.81v20.72h34.84v18.43h-57.84v-94.43h57.84v18.43h-34.84Z"/><path class="c" d="M1500,230.25v94.43h-23v-56.63l-21.12,56.63h-18.56l-21.25-56.77v56.77h-23v-94.43h27.17l26.5,65.38,26.23-65.38h27.04Z"/></g></svg>